<svg width="126" height="151" viewBox="0 0 126 151" fill="none" xmlns="http://www.w3.org/2000/svg">
<path d="M52.0999 4.6C25.0999 19 8.09992 38 1.89992 60.6C-0.900084 70.9 -0.500084 87.2 2.99992 97.2C4.19992 101 5.69992 104 6.09992 104C6.59992 104 9.09992 102.5 11.6999 100.6C17.3999 96.6 24.2999 93 26.4999 93C30.1999 93 26.4999 101 18.4999 110.4L13.0999 116.8L17.1999 120.5C23.1999 126 28.2999 128 36.4999 127.9C44.3999 127.9 49.4999 126.4 54.3999 122.6C56.2999 121.2 58.0999 120 58.3999 120C58.6999 120 58.7999 127 58.6999 135.5L58.4999 151H62.2999H65.9999V135.4V119.8L68.2999 121.4C74.1999 125.8 80.4999 128 87.0999 128C96.7999 128 104.6 124.6 109.4 118.3C111.2 115.8 111.2 115.8 107.2 111.7C99.3999 103.6 94.3999 93 98.3999 93C100.4 93 110.6 98.5 115.1 102.1C117.3 103.8 119 105 119 104.8C119 104.7 120.2 101.1 121.6 97C133.2 63.1 114.7 27.9 73.3999 5C68.4999 2.3 63.4999 -2.25008e-06 62.3999 -2.25008e-06C61.3999 -2.25008e-06 56.6999 2.1 52.0999 4.6ZM70.9999 12.3C103.6 30.9 120.7 57.7 117 84.2C116.4 88.1 115.7 91.6 115.5 91.9C115.2 92.1 112.6 91.1 109.6 89.6C97.5999 83.5 88.8999 86 88.9999 95.3C89.0999 98.8 92.7999 106.1 97.1999 111.3C101 115.9 101.1 116.2 99.3999 117.5C96.2999 119.9 89.7999 121.3 84.5999 120.6C78.4999 119.9 72.8999 116.3 69.2999 110.8L66.4999 106.7L66.1999 75.9L65.8999 45.2L62.2999 45.4L58.5999 45.5L58.7999 73.5C58.8999 89.2 58.5999 103 57.9999 104.9C54.3999 117.6 39.9999 124.4 28.2999 119C25.8999 118 23.9999 116.8 23.9999 116.5C23.9999 116.2 25.7999 113.6 27.9999 110.7C35.4999 100.7 37.0999 93 32.3999 88.3C30.1999 86.2 29.1999 85.8 25.5999 86.2C23.2999 86.5 18.5999 88 15.1999 89.7L9.09992 92.6L7.99992 87.8C2.09992 59.8 20.3999 30.3 55.4999 11.3C58.7999 9.5 61.9999 8 62.4999 8C63.0999 8 66.8999 9.9 70.9999 12.3Z" fill="black"/>
</svg>
