<svg width="127" height="145" viewBox="0 0 127 145" fill="none" xmlns="http://www.w3.org/2000/svg">
<path d="M73.4 2.59999C68.5 5.89999 67.5 7.19999 64.3 13.8C62.4 17.8 61.6 21.4 61.3 27.3C60.9 34.5 61.1 36.1 63.2 40C68.1 49.6 77.2 50.2 84.9 41.3C95 30 95.6 8.69999 86.1 2.29999C81.7 -0.700013 78.2 -0.600013 73.4 2.59999ZM82.4 8.49999C89.7 15.8 82.9 40 73.6 40C71.2 40 68 34.1 68 29.8C68 23.8 71.6 14.1 75.1 10.4C78.8 6.59999 80.1 6.29999 82.4 8.49999Z" fill="black"/>
<path d="M24.4 19.9C11.5 27.8 25.6 54.5 44.5 58.1C50.4 59.3 55.7 57.5 58 53.7C67.4 38.4 39.7 10.6 24.4 19.9ZM39.1 27.5C40.5 28.3 43.8 31.2 46.4 34.1C56.8 45.7 53.4 55.3 41.1 49C31.2 44 23.8 30.7 28.3 26.1C29.7 24.7 34.9 25.4 39.1 27.5Z" fill="black"/>
<path d="M97.2999 41C81.6999 46.1 74.5999 58.2 82.2999 66.5C90.8999 75.8 113.4 72.2 122.8 60.1C126.3 55.5 126.9 51.1 124.8 46.5C121.7 39.8 109 37.2 97.2999 41ZM116.8 48.6C119.8 50.5 119.6 52.3 116 56.3C109.6 63.6 92.9999 67 87.9999 62C85.3999 59.4 85.4999 58.8 88.5999 55C94.9999 47.5 109.6 44.1 116.8 48.6Z" fill="black"/>
<path d="M14.5 54.5C14 54.7 12.3 55.1 10.8 55.4C6.70003 56.3 2.10003 60.7 1.50003 64.4C-1.59997 80.7 32 95.7 44.7 83.8C47.6 81.1 48.5 76.1 47.1 71.7C45.2 66 35.3 58.2 27.4 56.2C22.5 55 15.8 54.1 14.5 54.5ZM27.4 63.7C33.8 66 40 72 40 75.9C40 78.3 39.4 79 36.9 79.9C32.6 81.4 30.7 81.3 23.6 79.3C16.9 77.4 9.00003 70.9 9.00003 67.2C9.00003 62.2 18.2 60.4 27.4 63.7Z" fill="black"/>
<path d="M63.9 60.6C61.6 66.8 54 98.1 52 110C49.9 122.1 48 143.7 48.9 144.6C49.1 144.8 50.8 145 52.7 145C56 145 56 145 56 140.1C56 124.7 62.2 92.4 70.1 66.1C71.2 62.6 71.9 59.5 71.7 59.4C71.5 59.2 69.9 58.7 68.2 58.4C65.4 57.8 64.9 58.1 63.9 60.6Z" fill="black"/>
<path d="M84.3 77.6C71.7 82.1 70.6 95.6 82.2 102.4C99 112.1 124.3 104 121.6 89.7C120.8 85.2 114.7 79.8 108.2 77.6C102.5 75.6 89.9 75.7 84.3 77.6ZM108.8 85.9C112.8 87.9 114 89.6 114 93.1C114 97.6 100.1 100.5 90.8 98C86.6 96.8 81 92.5 81 90.5C81 88.5 84.9 85.1 88.5 84C93.1 82.5 104.3 83.6 108.8 85.9Z" fill="black"/>
<path d="M14.7 94.4C8.50001 96.2 3.20001 100.4 1.30001 104.8C5.52629e-06 107.9 5.52629e-06 108.8 1.40001 112.4C5.90001 124.1 27.3 127.9 41.2 119.6C46.9 116.2 49.8 111.2 48.6 106.6C47.6 102.7 42.4 97.4 37.7 95.5C32.1 93.2 20.7 92.7 14.7 94.4ZM36 103.2C39.8 105.1 40.5 106 40.5 108.4C40.5 116.7 19.5 119.7 10.6 112.7C8.20001 110.8 7.80001 109.9 8.40001 107.6C10 101.3 26.8 98.6 36 103.2Z" fill="black"/>
<path d="M69.2 107.6C65.5 109.5 63 113.5 63 117.5C63 127.9 77.8 139.9 91.7 140.8C102.2 141.5 108 137.5 108 129.8C108 122 102.1 114.4 92 109.4C85 105.9 74.2 105 69.2 107.6ZM83.5 114.1C96.9 117.7 106.4 131.4 96.9 133.5C88.4 135.4 73.8 127.7 71.1 119.9C70.2 117.4 70.4 116.6 72 115C74.2 112.8 77.6 112.5 83.5 114.1Z" fill="black"/>
</svg>
