<svg width="109" height="155" viewBox="0 0 109 155" fill="none" xmlns="http://www.w3.org/2000/svg">
<path d="M41.4 17.2C25.9 38.1 24.3 41 23.4 48.2C22.2 58.4 24.4 62.6 38.7 77.1L51 89.7V107.1V124.5L44 117.4L36.9 110.4L38.5 106.7C44.4 92.5 33 77.5 17.7 79.3C2.00004 81.2 -5.19996 99.8 5.20004 111.6C11 118.2 18.5 120.3 26.9 117.5L31.9 115.9L41.5 125.3L51 134.7V144.4V154.1L54.8 153.7L58.5 153.3L58.8 143.8L59.1 134.4L68.4 125.1L77.7 115.9L82.8 117.5C96.1 121.9 109 112.8 109 99.1C109 96.4 108.5 92.9 107.9 91.3C105.4 84.7 97 79.1 89.4 79C83.9 79 76.1 83.1 73 87.6C69.9 92.3 69 102.3 71.4 107L72.9 110.2L66 117.1C62.3 120.9 59 124 58.8 124C58.6 124 58.6 116.3 58.7 106.9L58.8 89.8L70.4 78.1C77.5 70.8 82.7 64.7 83.9 61.9C86.8 55.7 86.7 46 83.7 39.9C81.5 35.2 56 0.0999733 54.9 -2.67103e-05C54.5 -2.67103e-05 48.5 7.79997 41.4 17.2ZM65.2 25.7C77.1 41.7 79 45.1 79 50.1C79 57 77 60.2 65.6 71.7L54.5 83L45.2 73.7C33.8 62.5 30.9 57.9 30.9 51.3C30.9 48.7 31.2 45.5 31.7 44.2C32.4 42.3 54 12.1 54.7 12C54.9 12 59.6 18.2 65.2 25.7ZM27.7 88.9C28.9 89.8 30.5 91.6 31.2 92.9C32.6 95.4 32.9 102.4 31.7 103.6C31.3 104 29 102.5 26.7 100.2L22.4 96L20.2 98.3C17.2 101.5 17.4 102.3 22 106.3C24.2 108.1 25.7 110 25.3 110.3C24.1 111.6 16.9 111 14 109.5C5.00004 104.9 6.70004 89.9 16.4 87.1C20.2 86 24.7 86.7 27.7 88.9ZM96.6 88.7C99.1 90.3 102 95.8 102 99C102 102 99.5 106.5 96.4 108.9C94.5 110.4 92.3 111 88.9 111C86.2 111 84 110.6 84 110.2C84 109.8 85.8 107.7 88 105.5L92 101.6L89.8 99.3C88.6 98 87.3 97 86.8 97C86.4 97 84.4 98.6 82.4 100.5C80.4 102.4 78.4 103.8 77.9 103.4C76.1 102.3 77 95.3 79.3 91.9C83 86.3 90.8 84.9 96.6 88.7Z" fill="black"/>
</svg>
