<svg width="71" height="157" viewBox="0 0 71 157" fill="none" xmlns="http://www.w3.org/2000/svg">
<path d="M32.7 6.00001C24 24.7 10.5 58.5 3.9 78.5C1 87.1 0.6 89.9 0.5 98.5C0.5 107.1 0.8 109.2 3 113.5C7.8 123.4 18.3 131.7 28.3 133.5L32 134.2V145.6V157H35.5H39V108.5V60H35.5H32V79.7V99.4L27.6 95.1C23.2 90.8 23.1 90.7 20.6 92.4C19.2 93.3 18 94.6 18 95.4C18 96.1 21.2 99.7 25 103.4L32 110.2V118.1C32 125.6 31.9 126 29.8 126C23.5 125.9 13.9 118.6 9.9 110.8C4.2 99.7 7.3 86.8 26.6 39.1C30.8 28.9 34.5 20.2 34.9 19.7C36 18.6 50.4 53.8 57.4 74.5C64.7 96.6 65.1 102 60 111.9C57.9 116.1 51.3 122.4 48.1 123.5C45.8 124.2 45.5 125.6 47 129.5L48 132.1L52.1 130C58 126.9 64.2 120.3 67.5 113.4C73.4 101.4 71.1 87.8 57.4 52.8C51.4 37.2 41.1 12.6 37.5 5.20001L35.3 0.600009L32.7 6.00001Z" fill="black"/>
</svg>
