<svg width="80" height="147" viewBox="0 0 80 147" fill="none" xmlns="http://www.w3.org/2000/svg">
<path d="M69.4 2.90002C36.8 12.7 12.9 34.4 3.89999 62.3C-0.200008 74.9 0.399992 96 5.09999 109.8L6.99999 115.4L3.39999 129.8C1.49999 137.7 0.0999921 144.8 0.399992 145.6C0.699992 146.4 2.29999 147 3.89999 147C7.19999 147 7.09999 147.2 9.49999 136.5C13.1 120.3 13.7 119 18.4 116.9C20.8 115.9 29.5 113.4 37.6 111.5C45.8 109.5 54.9 106.8 57.7 105.5C64.9 102.2 72.4 94.4 76.3 86.2C79.2 80 79.5 78.7 79.4 69C79.4 62.8 78.5 52.9 77.1 44.8C74.1 26.9 74.4 15.2 78.2 6.20002C79.7 2.50002 80.3 1.61201e-05 79.6 0.100016C79 0.100016 74.4 1.40002 69.4 2.90002ZM67.6 23.2C67.6 31 68.5 39.9 69.8 47.6C71 54.3 72 63.7 72 68.6C72 76.3 71.6 78.3 69.2 83.5C66.3 89.6 60.6 95.6 55 98.5C53.3 99.4 45 101.8 36.7 104C28.3 106.1 20.7 108.1 19.8 108.5C17.4 109.5 17.5 109 22.3 97L26.5 86.5L39.3 82.5L52.1 78.5L51.5 75C51.1 73.1 50.7 71.4 50.6 71.3C50.5 71.2 46.2 72.4 41 74C35.9 75.7 31.5 76.8 31.2 76.6C30.7 76 39.8 59 46.2 48.6L51.1 40.6L48.8 38.8C47.5 37.8 46 37 45.4 37C42.7 37 23.5 73.4 15.8 93.1C13.1 100 11.3 103.5 10.8 102.7C10.4 101.9 9.59999 97.2 8.89999 92.2C4.59999 58.9 24.8 28.9 62 13.4C65 12.1 67.5 11.1 67.5 11C67.5 11 67.5 16.5 67.6 23.2Z" fill="black"/>
</svg>
