<svg width="150" height="154" viewBox="0 0 150 154" fill="none" xmlns="http://www.w3.org/2000/svg">
<path d="M71.8 3.7C59.5 22.1 54.8 41.3 58.1 59.6C60.3 72.1 66.6 87.4 72.5 94.5L75 97.5L77.5 94.5C78.9 92.8 81.9 87.8 84.1 83.3C94.7 61.7 95.7 42 87.1 20.7C84.1 13 76.5 -1.45286e-06 75 -1.45286e-06C74.6 -1.45286e-06 73.1 1.7 71.8 3.7ZM78.9 20.2C87.7 40.7 87.6 57.9 78.8 77.2C77.1 81 75.4 84 75 84C73.8 84 68.2 71 66.3 64C64.1 55.6 64.1 41.6 66.4 33C68.2 26 73.8 13 75 13C75.4 13 77.1 16.3 78.9 20.2Z" fill="black"/>
<path d="M144 51.1C121.5 54.4 100.5 68.1 89.8 86.4C85.3 94.1 79 110.8 79 115.2C79 118.6 79.7 118.7 90.8 116C118.4 109.4 137.3 92.1 146.5 65.1C148.6 58.8 150.6 49.8 149.8 50.1C149.7 50.2 147 50.6 144 51.1ZM139.5 62.7C138.5 66.9 132.2 78.9 128.3 84.2C123.3 91.1 115.6 97.5 107 101.9C99.3 105.9 89.2 109.6 88.4 108.7C87.7 108 91.7 98.3 95.7 91.2C99.7 84 109.3 73.7 116 69.4C121.2 66.1 135.6 60 138.4 60C139.9 60 140.1 60.5 139.5 62.7Z" fill="black"/>
<path d="M0 51.7C0 55.3 4.5 69 7.9 75.6C13.4 86.4 14.8 88.4 23.2 96.8C32.5 106 45.7 113 60.2 116.2C65.6 117.4 70.3 118.1 70.6 117.7C72 116.3 67.8 101.9 63.5 93.3C53.7 73.6 41.4 62.8 20 54.9C11.4 51.8 0 50 0 51.7ZM27 65.9C34.6 69.6 38 72 44.2 78.2C48.5 82.5 53 88.1 54.4 90.7C57.8 97.4 62.1 108.3 61.6 108.8C60.3 110 43.8 103 35.5 97.8C30.3 94.5 22.4 86.3 18.6 80.2C15 74.4 8.9 60.9 9.6 59.9C10.3 58.7 17 61 27 65.9Z" fill="black"/>
<path d="M71 138.9V152.8L74.5 153.2C76.5 153.4 78.3 153.4 78.5 153.1C78.8 152.9 79 146.4 79 138.8V125H75H71V138.9Z" fill="black"/>
</svg>
