<svg width="30" height="43" viewBox="0 0 30 43" xmlns="http://www.w3.org/2000/svg">
  <path d="M11.7091 2.99989C3.35422 11.9155 -0.318549 18.1115 -0.206404 23.13C-0.094257 29.6064 4.92426 35.6342 11.4287 37.0921C12.4941 37.3445 13.4193 37.5968 13.5314 37.6809C13.6155 37.793 13.6716 38.9986 13.6155 40.3724L13.5595 42.8957H14.6809H15.8024L15.8865 40.1761L15.9706 37.4286L17.5126 37.2323C19.8957 36.8959 23.4283 35.0174 25.3908 33.0269C28.3627 30.027 30.2131 25.0926 29.7084 21.5039C29.1757 17.4386 25.5871 11.551 19.6714 5.04655L18.0453 3.25222L17.3163 3.98117L16.5874 4.71011L18.6621 7.06517C22.8675 11.7753 25.9796 16.3452 27.045 19.4292C29.1757 25.4851 25.3347 32.5222 18.7182 34.7371C15.522 35.8025 15.8304 36.8118 15.8304 25.3729V15.42H14.709H13.5595L13.6155 25.2608C13.6436 30.6438 13.5875 35.1576 13.5034 35.2417C13.223 35.4941 10.4474 34.7651 8.98953 34.0362C4.50371 31.7933 1.53185 26.8308 1.86829 22.1207C2.17669 17.9152 6.04571 11.9715 13.5595 4.14938L16.1949 1.37378L15.55 0.70091C15.1856 0.308401 14.8211 0 14.709 0C14.5968 0 13.2511 1.34575 11.7091 2.99989Z" />
</svg>
