<svg width="120" height="147" viewBox="0 0 120 147" fill="none" xmlns="http://www.w3.org/2000/svg">
<path d="M69.6 1.5C64.7 3.2 60.3 7.4 57.9 12.5C56.4 15.8 56 19 56 30.2C56 37.8 55.9 44 55.7 44C55.6 44 53.7 43.1 51.5 42C47.9 40.2 45.6 40 23.8 40H0V53.2C0 68.4 1.2 72.4 7.3 77.7C12.2 82 18.6 83.2 35 82.8L48.5 82.5L48.8 78.7L49.1 75H32.8C18.6 75 16.1 74.7 13.4 73.1C8.7 70.2 7 65.6 7 55.6V47H25.8C46.8 47 49.6 47.7 53.7 53.9L56 57.3V102.1V147H59.5H63V122.7C63.1 86.3 62.5 87 93 87H112V95.7C112 106.1 110.3 110.4 105 113.2C102.1 114.7 99.1 115 86.3 115H71V118.5V122H87C104.1 122 108 121.2 112.8 116.7C118.4 111.5 119.3 107.6 119.1 88.1L119 78.8L95.3 79.2C73.1 79.6 71.2 79.8 67.2 81.9L62.9 84.1L63.2 50.3C63.6 5.3 61.7 8 92.5 8H112.2L111.8 17.9C111.5 26.9 111.3 28.1 109 30.5C107.6 32 105.7 33.6 104.7 34.1C103.8 34.7 95.8 35.1 87 35.1H71V39.1V43.1L87.8 42.8C107.1 42.5 110.3 41.4 115.5 34.1C118.5 29.9 118.5 29.7 118.8 14.9L119.1 -2.19047e-06H96.3C79.6 0.0999978 72.5 0.499998 69.6 1.5Z" fill="black"/>
</svg>
