<svg width="103" height="152" viewBox="0 0 103 152" fill="none" xmlns="http://www.w3.org/2000/svg">
<path d="M45.3 1.00001C39.4 2.20001 33.5 5.50001 29 10C25 14 21 20.7 21 23.4C21 24.2 19 26 16.7 27.4C11.2 30.5 5.6 38.6 2.8 47.1C-0.1 56 -0.1 71.9 2.7 80.7C6.3 91.6 12.6 99.9 19.3 102.3C20.2 102.7 21 103.6 21 104.5C21 106.8 23.8 111.9 27.6 116.7C31.2 121.1 41.5 127 45.7 127C48 127 48 127.1 48 139.5V152H51.5H55V97.5V43H51.5H48V59.2V75.4L41 68.5L34 61.5L31.3 64.3L28.5 67L38.3 76.8L48 86.5V103.3C48 121.8 48.2 121.4 41.5 117.9C33.8 113.8 29 107.6 27.5 99.8C26.9 96.9 26.3 96.1 24 95.7C14.9 93.8 8 80.1 8 63.5C8 47.8 15 34.1 24 32.3C26.3 31.9 26.9 31.1 27.5 28.2C30.3 13.2 45.5 4.50001 60.3 9.60001C68.2 12.3 76 22.5 76 30.1C76 31.2 77.2 32 79.4 32.4C83.8 33.2 90.2 40.3 92.5 46.8C96.3 57.5 96 73.1 91.9 82.8C89.3 88.9 83.5 94.8 79.4 95.6C76.6 96.1 76.1 96.7 75.6 100.2C75.2 102.4 74.3 105.4 73.6 106.9C72.2 109.5 65.2 117 64.1 117C63.8 117 62.9 117.4 62.2 117.9C61 118.6 61.1 119.3 62.4 121.9C63.3 123.6 64.3 125 64.7 125C65 125 66.8 124.1 68.6 122.9C73.7 119.8 79.3 112.9 81.3 107.2C82.7 103.5 83.9 101.9 85.9 101C89.2 99.7 93.8 95 96.9 89.9C99.9 84.8 103 71.9 103 64.6C102.9 48 95.2 30.8 86.1 27C84 26.2 82.7 24.7 81.9 22.1C77.2 7.60001 60.4 -2.09999 45.3 1.00001Z" fill="black"/>
</svg>
